<svg xmlns="http://www.w3.org/2000/svg" viewBox="0 0 400 140" fill="none">
  <defs>
    <linearGradient id="catfish-body" x1="0" y1="0" x2="0" y2="1">
      <stop offset="0%" stop-color="#3a3530"/>
      <stop offset="50%" stop-color="#5a554a"/>
      <stop offset="100%" stop-color="#a89978"/>
    </linearGradient>
    <linearGradient id="catfish-belly" x1="0" y1="0" x2="0" y2="1">
      <stop offset="0%" stop-color="#9c8c6c"/>
      <stop offset="100%" stop-color="#d4c298"/>
    </linearGradient>
    <linearGradient id="catfish-fin" x1="0" y1="0" x2="0" y2="1">
      <stop offset="0%" stop-color="#3a3530"/>
      <stop offset="100%" stop-color="#6a624f"/>
    </linearGradient>
  </defs>
  <path d="M 18 56 L 50 36 L 58 70 L 50 104 L 18 84 Z" fill="url(#catfish-fin)" stroke="#1a1f14" stroke-width="0.8"/>
  <path d="M 50 70 Q 55 50, 100 42 Q 180 28, 270 32 Q 320 35, 350 50 Q 365 58, 372 70 Q 365 82, 350 90 Q 320 105, 270 108 Q 180 112, 100 98 Q 55 90, 50 70 Z" fill="url(#catfish-body)" stroke="#1a1f14" stroke-width="1"/>
  <path d="M 55 75 Q 100 95, 180 105 Q 260 110, 320 100 Q 350 92, 360 80 Q 355 90, 340 95 Q 280 115, 180 115 Q 95 110, 55 75 Z" fill="url(#catfish-belly)" opacity="0.6"/>
  <path d="M 130 38 L 145 22 L 165 24 L 162 40 Q 145 42, 130 40 Z" fill="url(#catfish-fin)" stroke="#1a1f14" stroke-width="0.8"/>
  <path d="M 100 96 Q 130 112, 170 116 Q 220 118, 270 114 Q 290 110, 295 104 Q 250 106, 200 108 Q 140 108, 100 96 Z" fill="url(#catfish-fin)" stroke="#1a1f14" stroke-width="0.8"/>
  <path d="M 175 92 L 200 116 L 220 110 L 200 90 Z" fill="url(#catfish-fin)" stroke="#1a1f14" stroke-width="0.8"/>
  <path d="M 235 50 Q 238 70, 232 90" stroke="#1a1f14" stroke-width="1" fill="none" opacity="0.5"/>
  <g fill="#1a1f14" opacity="0.3">
    <ellipse cx="125" cy="58" rx="8" ry="4"/>
    <ellipse cx="155" cy="68" rx="10" ry="5"/>
    <ellipse cx="180" cy="56" rx="9" ry="4"/>
    <ellipse cx="210" cy="72" rx="11" ry="4.5"/>
    <ellipse cx="240" cy="60" rx="8" ry="3.5"/>
    <ellipse cx="265" cy="74" rx="9" ry="4"/>
    <ellipse cx="290" cy="62" rx="7" ry="3"/>
    <ellipse cx="140" cy="78" rx="6" ry="3"/>
    <ellipse cx="195" cy="84" rx="7" ry="3"/>
    <ellipse cx="225" cy="86" rx="6" ry="2.5"/>
    <ellipse cx="255" cy="88" rx="8" ry="3"/>
  </g>
  <path d="M 340 50 Q 360 56, 372 70 Q 360 84, 340 90" stroke="#1a1f14" stroke-width="1" fill="none"/>
  <path d="M 332 72 Q 345 76, 365 73 Q 372 72, 372 70" stroke="#1a1f14" stroke-width="1.5" fill="none"/>
  <path d="M 332 72 L 332 76" stroke="#1a1f14" stroke-width="1"/>
  <g stroke="#3a3530" stroke-width="1.2" fill="none" stroke-linecap="round">
    <path d="M 358 60 Q 380 50, 395 38"/>
    <path d="M 360 58 Q 380 48, 395 35"/>
    <path d="M 350 80 Q 365 92, 372 100"/>
    <path d="M 345 82 Q 358 94, 365 102"/>
    <path d="M 355 80 Q 372 90, 380 98"/>
    <path d="M 340 84 Q 350 96, 355 105"/>
  </g>
  <circle cx="320" cy="55" r="3" fill="#1a1f14"/>
  <circle cx="320" cy="55" r="1.8" fill="#6a624f"/>
  <circle cx="320.5" cy="54.5" r="0.6" fill="#d4c298"/>
</svg>
