<svg xmlns="http://www.w3.org/2000/svg" viewBox="0 0 400 140" fill="none">
  <defs>
    <linearGradient id="chub-body" x1="0" y1="0" x2="0" y2="1">
      <stop offset="0%" stop-color="#4a5660"/>
      <stop offset="40%" stop-color="#9aa39b"/>
      <stop offset="100%" stop-color="#e8e2d0"/>
    </linearGradient>
    <linearGradient id="chub-red" x1="0" y1="0" x2="0" y2="1">
      <stop offset="0%" stop-color="#c75e3f"/>
      <stop offset="100%" stop-color="#9c4530"/>
    </linearGradient>
    <linearGradient id="chub-fin" x1="0" y1="0" x2="0" y2="1">
      <stop offset="0%" stop-color="#4a5660"/>
      <stop offset="100%" stop-color="#8e8a78"/>
    </linearGradient>
  </defs>
  <path d="M 30 70 L 62 38 L 72 70 L 62 102 Z" fill="url(#chub-red)" opacity="0.75" stroke="#7a3525" stroke-width="0.8"/>
  <path d="M 62 70 Q 68 36, 145 28 Q 230 22, 305 38 Q 345 48, 365 68 Q 370 72, 365 76 Q 345 92, 305 102 Q 230 118, 145 112 Q 68 104, 62 70 Z" fill="url(#chub-body)" stroke="#3a4030" stroke-width="1"/>
  <path d="M 195 28 L 215 10 L 240 12 L 250 30 Q 222 32, 195 30 Z" fill="url(#chub-fin)" stroke="#3a4030" stroke-width="0.8"/>
  <path d="M 200 108 L 232 124 L 260 122 L 252 108 Q 225 110, 200 108 Z" fill="url(#chub-red)" stroke="#7a3525" stroke-width="0.8"/>
  <path d="M 165 104 L 182 122 L 200 122 L 190 104 Z" fill="url(#chub-red)" stroke="#7a3525" stroke-width="0.8"/>
  <path d="M 145 80 L 167 102 L 185 96 L 170 80 Z" fill="url(#chub-red)" opacity="0.85" stroke="#7a3525" stroke-width="0.8"/>
  <path d="M 152 38 Q 154 70, 142 102" stroke="#3a4030" stroke-width="1.2" fill="none" opacity="0.7"/>
  <path d="M 140 95 L 152 102" stroke="#7a3525" stroke-width="0.8" opacity="0.5"/>
  <g stroke="#3a4030" stroke-width="0.4" fill="none" opacity="0.4">
    <path d="M 160 50 Q 168 56, 176 50"/>
    <path d="M 180 48 Q 188 54, 196 48"/>
    <path d="M 200 47 Q 208 53, 216 47"/>
    <path d="M 220 47 Q 228 53, 236 47"/>
    <path d="M 240 48 Q 248 54, 256 48"/>
    <path d="M 260 50 Q 268 56, 276 50"/>
    <path d="M 280 52 Q 288 58, 296 52"/>
    <path d="M 165 60 Q 173 66, 181 60"/>
    <path d="M 185 58 Q 193 64, 201 58"/>
    <path d="M 205 57 Q 213 63, 221 57"/>
    <path d="M 225 57 Q 233 63, 241 57"/>
    <path d="M 245 58 Q 253 64, 261 58"/>
    <path d="M 265 60 Q 273 66, 281 60"/>
    <path d="M 170 72 Q 178 78, 186 72"/>
    <path d="M 190 71 Q 198 77, 206 71"/>
    <path d="M 210 71 Q 218 77, 226 71"/>
    <path d="M 230 71 Q 238 77, 246 71"/>
    <path d="M 250 72 Q 258 78, 266 72"/>
    <path d="M 175 84 Q 183 89, 191 84"/>
    <path d="M 195 84 Q 203 90, 211 84"/>
    <path d="M 215 84 Q 223 90, 231 84"/>
    <path d="M 235 84 Q 243 90, 251 84"/>
  </g>
  <path d="M 150 72 Q 220 76, 340 72" stroke="#3a4030" stroke-width="0.5" fill="none" opacity="0.35"/>
  <path d="M 340 50 Q 358 56, 368 68 Q 372 72, 368 76 Q 358 84, 340 90" stroke="#3a4030" stroke-width="1" fill="none"/>
  <line x1="340" y1="74" x2="370" y2="72" stroke="#3a4030" stroke-width="1.4"/>
  <path d="M 305 38 Q 330 36, 355 50 Q 340 52, 320 50 Q 310 48, 305 38 Z" fill="#3a4030" opacity="0.3"/>
  <circle cx="328" cy="58" r="5" fill="#1a1f14"/>
  <circle cx="328" cy="58" r="3.5" fill="#d4a058"/>
  <circle cx="328" cy="58" r="1.5" fill="#1a1f14"/>
  <circle cx="329" cy="57" r="0.7" fill="#fff"/>
</svg>
