<svg xmlns="http://www.w3.org/2000/svg" viewBox="0 0 400 140" fill="none">
  <defs>
    <linearGradient id="pike-body" x1="0" y1="0" x2="0" y2="1">
      <stop offset="0%" stop-color="#7d8c5f"/>
      <stop offset="55%" stop-color="#5d6c44"/>
      <stop offset="100%" stop-color="#c8b988"/>
    </linearGradient>
    <linearGradient id="pike-fin" x1="0" y1="0" x2="0" y2="1">
      <stop offset="0%" stop-color="#6a7a4f"/>
      <stop offset="100%" stop-color="#9da37a"/>
    </linearGradient>
  </defs>
  <path d="M 22 56 L 52 38 L 60 70 L 52 102 L 22 84 L 32 70 Z" fill="url(#pike-fin)" stroke="#4a5635" stroke-width="0.8"/>
  <path d="M 50 70 Q 55 48, 95 38 Q 175 22, 260 30 Q 320 36, 355 52 Q 372 60, 378 70 Q 372 80, 355 88 Q 320 104, 260 110 Q 175 118, 95 102 Q 55 92, 50 70 Z" fill="url(#pike-body)" stroke="#3d4a2c" stroke-width="1"/>
  <path d="M 240 32 L 260 12 L 295 18 L 285 38 Z" fill="url(#pike-fin)" stroke="#4a5635" stroke-width="0.8"/>
  <path d="M 240 108 L 280 122 L 295 122 L 285 102 Z" fill="url(#pike-fin)" stroke="#4a5635" stroke-width="0.8"/>
  <path d="M 135 90 L 155 110 L 175 102 L 165 90 Z" fill="url(#pike-fin)" stroke="#4a5635" stroke-width="0.8"/>
  <path d="M 120 50 Q 122 70, 120 92" stroke="#3d4a2c" stroke-width="1.2" fill="none" opacity="0.7"/>
  <g fill="#c8b988" opacity="0.5">
    <ellipse cx="155" cy="62" rx="4" ry="2.5"/>
    <ellipse cx="180" cy="78" rx="4" ry="2.5"/>
    <ellipse cx="200" cy="64" rx="4" ry="2.5"/>
    <ellipse cx="220" cy="76" rx="4" ry="2.5"/>
    <ellipse cx="245" cy="62" rx="4" ry="2.5"/>
    <ellipse cx="270" cy="78" rx="4" ry="2.5"/>
    <ellipse cx="295" cy="66" rx="4" ry="2.5"/>
    <ellipse cx="320" cy="76" rx="4" ry="2.5"/>
  </g>
  <path d="M 122 72 Q 200 78, 350 70" stroke="#3d4a2c" stroke-width="0.6" fill="none" opacity="0.5"/>
  <path d="M 355 52 Q 370 56, 378 70 Q 370 84, 355 88" stroke="#3d4a2c" stroke-width="1" fill="none"/>
  <line x1="355" y1="72" x2="378" y2="72" stroke="#3d4a2c" stroke-width="0.8"/>
  <g stroke="#1a1f14" stroke-width="0.5">
    <line x1="362" y1="68" x2="362" y2="72"/>
    <line x1="368" y1="69" x2="368" y2="72"/>
    <line x1="374" y1="70" x2="374" y2="72"/>
    <line x1="362" y1="72" x2="362" y2="75"/>
    <line x1="368" y1="72" x2="368" y2="74"/>
    <line x1="374" y1="72" x2="374" y2="74"/>
  </g>
  <circle cx="346" cy="60" r="4" fill="#1a1f14"/>
  <circle cx="346" cy="60" r="2.5" fill="#c8a96e"/>
  <circle cx="347" cy="59" r="1" fill="#f4e8c8"/>
</svg>
